<svg width="36" height="36" viewBox="0 0 36 36" fill="none" xmlns="http://www.w3.org/2000/svg">
<g clip-path="url(#clip0_55_521)">
<path d="M18.0081 9.91404C12.8974 9.91404 8.77504 13.5211 8.77504 17.9929C8.77504 22.4648 12.8974 26.0718 18.0081 26.0718C23.1188 26.0718 27.2411 22.4648 27.2411 17.9929C27.2411 13.5211 23.1188 9.91404 18.0081 9.91404ZM18.0081 23.2453C14.7054 23.2453 12.0054 20.8898 12.0054 17.9929C12.0054 15.0961 14.6974 12.7406 18.0081 12.7406C21.3188 12.7406 24.0108 15.0961 24.0108 17.9929C24.0108 20.8898 21.3108 23.2453 18.0081 23.2453ZM29.7724 9.58357C29.7724 10.6312 28.8081 11.4679 27.6188 11.4679C26.4215 11.4679 25.4652 10.6242 25.4652 9.58357C25.4652 8.54294 26.4295 7.69919 27.6188 7.69919C28.8081 7.69919 29.7724 8.54294 29.7724 9.58357ZM35.8875 11.4961C35.7509 8.97185 35.092 6.73591 32.9786 4.89373C30.8733 3.05154 28.3179 2.47498 25.4331 2.34841C22.4599 2.20076 13.5483 2.20076 10.575 2.34841C7.69826 2.46794 5.1429 3.04451 3.02951 4.88669C0.916117 6.72888 0.265224 8.96482 0.120581 11.489C-0.0481689 14.0906 -0.0481689 21.8883 0.120581 24.4898C0.257188 27.014 0.916117 29.25 3.02951 31.0922C5.1429 32.9344 7.69022 33.5109 10.575 33.6375C13.5483 33.7851 22.4599 33.7851 25.4331 33.6375C28.3179 33.5179 30.8733 32.9414 32.9786 31.0922C35.084 29.25 35.7429 27.014 35.8875 24.4898C36.0563 21.8883 36.0563 14.0976 35.8875 11.4961ZM32.0465 27.2812C31.4197 28.6593 30.2063 29.7211 28.6233 30.2765C26.2527 31.0992 20.6277 30.9093 18.0081 30.9093C15.3884 30.9093 9.7554 31.0922 7.3929 30.2765C5.8179 29.7281 4.60451 28.6664 3.96969 27.2812C3.02951 25.207 3.24647 20.2851 3.24647 17.9929C3.24647 15.7008 3.03755 10.7719 3.96969 8.70466C4.59647 7.32654 5.80987 6.26482 7.3929 5.70935C9.76344 4.88669 15.3884 5.07654 18.0081 5.07654C20.6277 5.07654 26.2608 4.89373 28.6233 5.70935C30.1983 6.25779 31.4117 7.31951 32.0465 8.70466C32.9867 10.7789 32.7697 15.7008 32.7697 17.9929C32.7697 20.2851 32.9867 25.214 32.0465 27.2812Z" fill="#9824B9"/>
</g>
<defs>
<clipPath id="clip0_55_521">
<rect width="36" height="36" fill="white"/>
</clipPath>
</defs>
</svg>
