<svg width="36" height="36" viewBox="0 0 36 36" fill="none" xmlns="http://www.w3.org/2000/svg">
<g clip-path="url(#clip0_55_519)">
<path d="M19.125 0.457031C9.50625 0.457031 0 5.26641 0 13.05C0 18 3.7125 20.8125 5.9625 20.8125C6.89062 20.8125 7.425 18.8719 7.425 18.3234C7.425 17.6695 5.20312 16.2773 5.20312 13.5563C5.20312 7.90313 10.9406 3.89531 18.3656 3.89531C24.75 3.89531 29.475 6.61641 29.475 11.6156C29.475 15.3492 27.4781 22.3523 21.0094 22.3523C18.675 22.3523 16.6781 21.0867 16.6781 19.2727C16.6781 16.6148 19.1531 14.0414 19.1531 11.2992C19.1531 6.64453 10.35 7.48828 10.35 13.1133C10.35 14.2945 10.5469 15.6023 11.25 16.6781C9.95625 20.8547 7.3125 27.0773 7.3125 31.3805C7.3125 32.7094 7.56563 34.0172 7.73438 35.3461C8.05313 35.6133 7.89375 35.5852 8.38125 35.4516C13.1063 30.6 12.9375 29.6508 15.075 23.3016C16.2281 24.9469 19.2094 25.8328 21.5719 25.8328C31.5281 25.8328 36 18.5555 36 11.9953C36 5.01328 27.9562 0.457031 19.125 0.457031Z" fill="#9824B9"/>
</g>
<defs>
<clipPath id="clip0_55_519">
<rect width="36" height="36" fill="white"/>
</clipPath>
</defs>
</svg>
